# This file uses centimeters as units for non-parametric coordinates.

mtllib plataforma.mtl
g default
v 22.535863 -4.251909 -21.784669
v 22.535863 -6.505494 -19.531081
v 22.535863 -0.495932 -22.535865
v 22.535863 -3.500714 -22.535865
v -22.535863 -4.251909 -21.784669
v -22.535863 -6.505494 -19.531081
v -22.535863 -3.500714 -22.535865
v -22.535863 -0.495932 -22.535865
v 22.385623 -0.646171 -22.911463
v 22.385623 -3.644433 -22.882878
v 22.385623 -4.411262 -22.156491
v -22.385623 -4.411262 -22.156491
v -22.385623 -3.644433 -22.882878
v -22.385623 -0.646171 -22.911463
v 22.385623 -6.906317 -19.476424
v 22.385623 -7.584636 -16.763151
v -22.385623 -7.584636 -16.763151
v -22.385623 -6.906317 -19.476424
v 22.535863 -7.256691 -16.526301
v -22.535863 -7.256691 -16.526301
v 22.535863 0.255264 -22.160265
v -22.535863 0.255264 -22.160265
v 22.535863 0.255264 -18.404289
v -22.535863 0.255264 -18.404289
v 22.535863 -0.495932 -18.028689
v -22.535863 -0.495932 -18.028689
v 21.033472 0.255264 -20.908273
v -21.033472 0.255264 -20.908273
v -21.033472 0.255264 -19.656279
v 21.033472 0.255264 -19.656279
v 20.883233 -0.120334 -20.758034
v -20.883233 -0.120334 -20.758034
v -20.883233 -0.120334 -19.806518
v 20.883233 -0.120334 -19.806518
v -22.535863 -4.251909 21.784669
v 22.535863 -4.251909 21.784669
v 22.535863 -6.505494 19.531081
v -22.535863 -6.505494 19.531081
v -22.385623 -0.646171 22.911463
v 22.385623 -0.646171 22.911463
v 22.385623 -3.644433 22.882878
v -22.385623 -3.644433 22.882878
v -22.385623 -6.906316 19.476424
v 22.385623 -6.906316 19.476424
v 22.385623 -7.584636 16.763151
v -22.385623 -7.584636 16.763151
v 22.385623 -4.411262 22.156491
v -22.385623 -4.411262 22.156491
v 22.535863 -0.495932 22.535865
v 22.535863 -3.500714 22.535865
v -22.535863 -3.500714 22.535865
v -22.535863 -0.495932 22.535865
v 22.535863 -7.256691 16.526301
v -22.535863 -7.256691 16.526301
v -22.535863 0.255264 22.160265
v 22.535863 0.255264 22.160265
v 20.883233 -0.120334 20.758034
v -20.883233 -0.120334 20.758034
v -20.883233 -0.120334 19.806518
v 20.883233 -0.120334 19.806518
v 22.535863 0.255264 18.404289
v -22.535863 0.255264 18.404289
v -22.535863 -0.495932 18.028689
v 22.535863 -0.495932 18.028689
v -21.033472 0.255264 20.908273
v 21.033472 0.255264 20.908273
v -21.033472 0.255264 19.656279
v 21.033472 0.255264 19.656279
v 12.758076 -0.495933 -17.776271
v -12.744321 -0.495933 -17.776273
v -12.744319 -0.495933 -13.011137
v 12.758078 -0.495933 -13.011137
v 12.607837 -0.345694 -17.626032
v -12.594082 -0.345694 -17.626034
v -12.594082 -0.345694 -13.161376
v 12.607837 -0.345694 -13.161376
v 12.607837 -0.345694 17.626032
v -12.594082 -0.345694 17.626034
v -12.594082 -0.345694 13.161376
v 12.607837 -0.345694 13.161376
v 12.758076 -0.495933 17.776271
v -12.744321 -0.495933 17.776273
v -12.744319 -0.495933 13.011137
v 12.758078 -0.495933 13.011137
vt 0.092014 0.992484
vt 0.183580 0.127049
vt 0.092808 0.108548
vt 0.143605 0.124006
vt 0.238311 0.127049
vt 0.144089 0.131138
vt 0.092014 0.203852
vt 0.158980 0.166234
vt 0.238344 0.115696
vt 0.141925 0.158389
vt 0.142410 0.151257
vt 0.183612 0.115696
vt 0.013282 0.124787
vt 0.093266 0.116160
vt 0.160660 0.116160
vt 0.159557 0.158630
vt 0.091127 0.173846
vt 0.091586 0.166234
vt 0.235657 0.134197
vt 0.186235 0.134197
vt 0.186267 0.108548
vt 0.235690 0.108548
vt 0.908218 0.987000
vt 0.908218 0.506870
vt 0.992997 0.506871
vt 0.992997 0.987001
vt 0.904846 0.990372
vt 0.904846 0.503496
vt 0.996370 0.503499
vt 0.996370 0.990373
vt 0.147776 0.203848
vt 0.147777 0.992480
vt 0.013994 0.989862
vt 0.182423 0.158144
vt 0.012705 0.117184
vt 0.013994 0.206488
vt 0.066458 0.206487
vt 0.029851 0.109807
vt 0.185078 0.150996
vt 0.066457 0.989861
vt 0.154852 0.989846
vt 0.234500 0.150996
vt 0.154851 0.206472
vt 0.030336 0.116939
vt 0.203783 0.206466
vt 0.203784 0.989840
vt 0.084938 0.206484
vt 0.080678 0.124786
vt 0.081137 0.132397
vt 0.237155 0.158144
vt 0.084938 0.989859
vt 0.236524 0.173594
vt 0.992846 0.493971
vt 0.908067 0.493970
vt 0.908067 0.013839
vt 0.992846 0.013841
vt 0.996219 0.497343
vt 0.996219 0.010470
vt 0.904694 0.010466
vt 0.904694 0.497342
vt 0.899396 0.132259
vt 0.899396 0.990186
vt 0.883394 0.990335
vt 0.883394 0.132111
vt 0.855661 0.164546
vt 0.855660 0.957901
vt 0.839198 0.957902
vt 0.839198 0.164546
vt 0.811330 0.132134
vt 0.811330 0.990322
vt 0.795093 0.990198
vt 0.795087 0.132270
vt 0.860045 0.962285
vt 0.860046 0.160162
vt 0.834780 0.962282
vt 0.834781 0.160168
vt 0.004181 0.132299
vt 0.020183 0.132150
vt 0.020183 0.990373
vt 0.004181 0.990226
vt 0.047917 0.164583
vt 0.064380 0.164583
vt 0.064379 0.957938
vt 0.047917 0.957938
vt 0.092247 0.132162
vt 0.108483 0.132286
vt 0.108489 0.990213
vt 0.092247 0.990350
vt 0.043532 0.160200
vt 0.043532 0.962322
vt 0.068797 0.962316
vt 0.068797 0.160203
vt 0.006916 0.992491
vt 0.006916 0.203860
vt 0.210855 0.203830
vt 0.210860 0.992462
vt 0.908003 0.992425
vt 0.852251 0.992429
vt 0.852250 0.203798
vt 0.908003 0.203793
vt 0.986007 0.989789
vt 0.933547 0.989790
vt 0.933547 0.206417
vt 0.986007 0.206415
vt 0.845182 0.989805
vt 0.796254 0.989811
vt 0.796253 0.206437
vt 0.845182 0.206431
vt 0.915072 0.989793
vt 0.915072 0.206419
vt 0.993084 0.992417
vt 0.079874 0.153514
vt 0.993084 0.203786
vt 0.789179 0.203815
vt 0.789185 0.992446
vt 0.233870 0.180742
vt 0.161236 0.123764
vt 0.184448 0.180742
vt 0.181794 0.173594
vt 0.079416 0.161126
vt 0.028591 0.176105
vt 0.029075 0.168973
vt 0.011446 0.168729
vt 0.012022 0.161126
vt 0.908218 0.987000
vt 0.908218 0.506870
vt 0.992997 0.506871
vt 0.992997 0.987001
vt 0.904846 0.990372
vt 0.904846 0.503496
vt 0.996370 0.503499
vt 0.996370 0.990373
vt 0.992846 0.493971
vt 0.908067 0.493970
vt 0.908067 0.013839
vt 0.992846 0.013841
vt 0.996219 0.497343
vt 0.996219 0.010470
vt 0.904694 0.010466
vt 0.904694 0.497342
vt 0.899396 0.132259
vt 0.899396 0.990186
vt 0.883394 0.990335
vt 0.883394 0.132111
vt 0.855661 0.164546
vt 0.855660 0.957901
vt 0.839198 0.957902
vt 0.839198 0.164546
vt 0.811330 0.132134
vt 0.811330 0.990322
vt 0.795093 0.990198
vt 0.795087 0.132270
vt 0.860045 0.962285
vt 0.860046 0.160162
vt 0.834780 0.962282
vt 0.834781 0.160168
vt 0.004181 0.132299
vt 0.020183 0.132150
vt 0.020183 0.990373
vt 0.004181 0.990226
vt 0.047917 0.164583
vt 0.064380 0.164583
vt 0.064379 0.957938
vt 0.047917 0.957938
vt 0.092247 0.132162
vt 0.108483 0.132286
vt 0.108489 0.990213
vt 0.092247 0.990350
vt 0.043532 0.160200
vt 0.043532 0.962322
vt 0.068797 0.962316
vt 0.068797 0.160203
vt 0.908218 0.987000
vt 0.908218 0.506870
vt 0.992997 0.506871
vt 0.992997 0.987001
vt 0.904846 0.990372
vt 0.904846 0.503496
vt 0.996370 0.503499
vt 0.996370 0.990373
vt 0.992846 0.493971
vt 0.908067 0.493970
vt 0.908067 0.013839
vt 0.992846 0.013841
vt 0.996219 0.497343
vt 0.996219 0.010470
vt 0.904694 0.010466
vt 0.904694 0.497342
vn 0.000000 -0.707107 -0.707106
vn 0.000000 -0.707107 -0.707106
vn 0.000000 -0.707107 -0.707106
vn 0.000000 -0.707107 -0.707106
vn 0.000000 -0.707107 -0.707106
vn 0.000000 -0.707107 -0.707106
vn 0.000000 -0.009533 -0.999955
vn 0.000000 -0.009533 -0.999955
vn 0.000000 -0.009533 -0.999955
vn 0.000000 -0.009533 -0.999955
vn 0.000000 -0.009533 -0.999955
vn 0.000000 -0.009533 -0.999955
vn -0.000000 -0.970142 -0.242536
vn -0.000000 -0.970142 -0.242536
vn -0.000000 -0.970142 -0.242536
vn -0.000000 -0.970142 -0.242536
vn -0.000000 -0.970142 -0.242536
vn -0.000000 -0.970142 -0.242536
vn 0.000000 -0.687703 -0.725992
vn 0.000000 -0.687703 -0.725992
vn 0.000000 -0.687703 -0.725992
vn 0.000000 -0.687703 -0.725992
vn 0.000000 -0.687703 -0.725992
vn 0.000000 -0.687703 -0.725992
vn 0.923615 -0.001825 -0.383318
vn 0.923615 -0.001825 -0.383318
vn 0.923615 -0.001825 -0.383318
vn 0.923615 -0.001825 -0.383318
vn 0.923615 -0.001825 -0.383318
vn 0.923615 -0.001825 -0.383318
vn 0.924081 -0.266581 -0.273878
vn 0.924081 -0.266581 -0.273878
vn 0.924081 -0.266581 -0.273878
vn 0.924081 -0.266581 -0.273878
vn 0.924081 -0.266581 -0.273878
vn 0.924081 -0.266581 -0.273878
vn 0.000000 -0.919145 0.393920
vn 0.000000 -0.919145 0.393920
vn 0.000000 -0.919145 0.393920
vn 0.000000 -0.919145 0.393920
vn 0.000000 -0.919145 0.393920
vn 0.000000 -0.919145 0.393920
vn -0.924081 -0.266581 -0.273878
vn -0.924081 -0.266581 -0.273878
vn -0.924081 -0.266581 -0.273878
vn -0.924081 -0.266581 -0.273878
vn -0.924081 -0.266581 -0.273878
vn -0.924081 -0.266581 -0.273878
vn -0.923615 -0.001825 -0.383318
vn -0.923615 -0.001825 -0.383318
vn -0.923615 -0.001825 -0.383318
vn -0.923615 -0.001825 -0.383318
vn -0.923615 -0.001825 -0.383318
vn -0.923615 -0.001825 -0.383318
vn 0.000000 0.928477 -0.371391
vn 0.000000 0.928477 -0.371391
vn 0.000000 0.928477 -0.371391
vn 0.000000 0.928477 -0.371391
vn 0.000000 0.928477 -0.371391
vn 0.000000 0.928477 -0.371391
vn 0.928477 -0.360302 -0.090076
vn 0.928477 -0.360302 -0.090076
vn 0.928477 -0.360302 -0.090076
vn 0.928477 -0.360302 -0.090076
vn 0.928477 -0.360302 -0.090076
vn 0.928477 -0.360302 -0.090076
vn -0.000000 -0.585492 0.810679
vn -0.000000 -0.585492 0.810679
vn -0.000000 -0.585492 0.810679
vn -0.000000 -0.585492 0.810679
vn -0.000000 -0.585492 0.810679
vn -0.000000 -0.585492 0.810679
vn -0.928477 -0.360302 -0.090076
vn -0.928477 -0.360302 -0.090076
vn -0.928477 -0.360302 -0.090076
vn -0.928477 -0.360302 -0.090076
vn -0.928477 -0.360302 -0.090076
vn -0.928477 -0.360302 -0.090076
vn 0.000000 -0.135112 -0.990830
vn 0.000000 -0.135112 -0.990830
vn 0.000000 -0.135112 -0.990830
vn 0.000000 -0.135112 -0.990830
vn 0.000000 -0.135112 -0.990830
vn 0.000000 -0.135112 -0.990830
vn 0.000000 0.447215 -0.894426
vn 0.000000 0.447215 -0.894426
vn 0.000000 0.447215 -0.894426
vn 0.000000 0.447215 -0.894426
vn 0.000000 0.447215 -0.894426
vn 0.000000 0.447215 -0.894426
vn 0.000000 1.000000 0.000000
vn 0.000000 1.000000 0.000000
vn 0.000000 1.000000 0.000000
vn 0.000000 1.000000 0.000000
vn 0.000000 1.000000 0.000000
vn 0.000000 1.000000 0.000000
vn 0.000000 0.447216 0.894426
vn 0.000000 0.447216 0.894426
vn 0.000000 0.447216 0.894426
vn 0.000000 0.447216 0.894426
vn 0.000000 0.447216 0.894426
vn 0.000000 0.447216 0.894426
vn 0.000000 1.000000 0.000000
vn 0.000000 1.000000 0.000000
vn 0.000000 1.000000 0.000000
vn 0.000000 1.000000 0.000000
vn 0.000000 1.000000 0.000000
vn 0.000000 1.000000 0.000000
vn 0.000000 1.000000 0.000000
vn 0.000000 1.000000 0.000000
vn 0.000000 1.000000 0.000000
vn 0.000000 1.000000 0.000000
vn 0.000000 1.000000 0.000000
vn 0.000000 1.000000 0.000000
vn 0.000000 1.000000 0.000000
vn 0.000000 1.000000 0.000000
vn 0.000000 1.000000 0.000000
vn 0.000000 1.000000 0.000000
vn 0.000000 1.000000 0.000000
vn 0.000000 1.000000 0.000000
vn 0.000000 1.000000 0.000000
vn 0.000000 1.000000 0.000000
vn 0.000000 1.000000 0.000000
vn 0.000000 1.000000 0.000000
vn 0.000000 1.000000 0.000000
vn 0.000000 1.000000 0.000000
vn 0.000000 0.371391 0.928477
vn 0.000000 0.371391 0.928477
vn 0.000000 0.371391 0.928477
vn 0.000000 0.371391 0.928477
vn 0.000000 0.371391 0.928477
vn 0.000000 0.371391 0.928477
vn 0.928477 0.371391 0.000000
vn 0.928477 0.371391 0.000000
vn 0.928477 0.371391 0.000000
vn 0.928477 0.371391 0.000000
vn 0.928477 0.371391 0.000000
vn 0.928477 0.371391 0.000000
vn 0.000000 0.371391 -0.928477
vn 0.000000 0.371391 -0.928477
vn 0.000000 0.371391 -0.928477
vn 0.000000 0.371391 -0.928477
vn 0.000000 0.371391 -0.928477
vn 0.000000 0.371391 -0.928477
vn -0.928477 0.371391 0.000000
vn -0.928477 0.371391 0.000000
vn -0.928477 0.371391 0.000000
vn -0.928477 0.371391 0.000000
vn -0.928477 0.371391 0.000000
vn -0.928477 0.371391 0.000000
vn 0.000000 -0.707107 0.707106
vn 0.000000 -0.707107 0.707106
vn 0.000000 -0.707107 0.707106
vn 0.000000 -0.707107 0.707106
vn 0.000000 -0.707107 0.707106
vn 0.000000 -0.707107 0.707106
vn 0.000000 -0.009533 0.999955
vn 0.000000 -0.009533 0.999955
vn 0.000000 -0.009533 0.999955
vn 0.000000 -0.009533 0.999955
vn 0.000000 -0.009533 0.999955
vn 0.000000 -0.009533 0.999955
vn -0.000000 -0.970142 0.242536
vn -0.000000 -0.970142 0.242536
vn -0.000000 -0.970142 0.242536
vn -0.000000 -0.970142 0.242536
vn -0.000000 -0.970142 0.242536
vn -0.000000 -0.970142 0.242536
vn 0.000000 -0.687703 0.725992
vn 0.000000 -0.687703 0.725992
vn 0.000000 -0.687703 0.725992
vn 0.000000 -0.687703 0.725992
vn 0.000000 -0.687703 0.725992
vn 0.000000 -0.687703 0.725992
vn 0.923615 -0.001825 0.383318
vn 0.923615 -0.001825 0.383318
vn 0.923615 -0.001825 0.383318
vn 0.923615 -0.001825 0.383318
vn 0.923615 -0.001825 0.383318
vn 0.923615 -0.001825 0.383318
vn 0.924081 -0.266581 0.273878
vn 0.924081 -0.266581 0.273878
vn 0.924081 -0.266581 0.273878
vn 0.924081 -0.266581 0.273878
vn 0.924081 -0.266581 0.273878
vn 0.924081 -0.266581 0.273878
vn 0.000000 -0.919145 -0.393920
vn 0.000000 -0.919145 -0.393920
vn 0.000000 -0.919145 -0.393920
vn 0.000000 -0.919145 -0.393920
vn 0.000000 -0.919145 -0.393920
vn 0.000000 -0.919145 -0.393920
vn -0.924081 -0.266581 0.273878
vn -0.924081 -0.266581 0.273878
vn -0.924081 -0.266581 0.273878
vn -0.924081 -0.266581 0.273878
vn -0.924081 -0.266581 0.273878
vn -0.924081 -0.266581 0.273878
vn -0.923615 -0.001825 0.383318
vn -0.923615 -0.001825 0.383318
vn -0.923615 -0.001825 0.383318
vn -0.923615 -0.001825 0.383318
vn -0.923615 -0.001825 0.383318
vn -0.923615 -0.001825 0.383318
vn 0.000000 0.928477 0.371391
vn 0.000000 0.928477 0.371391
vn 0.000000 0.928477 0.371391
vn 0.000000 0.928477 0.371391
vn 0.000000 0.928477 0.371391
vn 0.000000 0.928477 0.371391
vn 0.928477 -0.360302 0.090076
vn 0.928477 -0.360302 0.090076
vn 0.928477 -0.360302 0.090076
vn 0.928477 -0.360302 0.090076
vn 0.928477 -0.360302 0.090076
vn 0.928477 -0.360302 0.090076
vn -0.000000 -0.585491 -0.810679
vn -0.000000 -0.585491 -0.810679
vn -0.000000 -0.585491 -0.810679
vn -0.000000 -0.585491 -0.810679
vn -0.000000 -0.585491 -0.810679
vn -0.000000 -0.585491 -0.810679
vn -0.928477 -0.360302 0.090076
vn -0.928477 -0.360302 0.090076
vn -0.928477 -0.360302 0.090076
vn -0.928477 -0.360302 0.090076
vn -0.928477 -0.360302 0.090076
vn -0.928477 -0.360302 0.090076
vn 0.000000 -0.135112 0.990830
vn 0.000000 -0.135112 0.990830
vn 0.000000 -0.135112 0.990830
vn 0.000000 -0.135112 0.990830
vn 0.000000 -0.135112 0.990830
vn 0.000000 -0.135112 0.990830
vn 0.000000 0.447216 0.894426
vn 0.000000 0.447216 0.894426
vn 0.000000 0.447216 0.894426
vn 0.000000 0.447216 0.894426
vn 0.000000 0.447216 0.894426
vn 0.000000 0.447216 0.894426
vn 0.000000 1.000000 0.000000
vn 0.000000 1.000000 0.000000
vn 0.000000 1.000000 0.000000
vn 0.000000 1.000000 0.000000
vn 0.000000 1.000000 0.000000
vn 0.000000 1.000000 0.000000
vn 0.000000 0.447216 -0.894426
vn 0.000000 0.447216 -0.894426
vn 0.000000 0.447216 -0.894426
vn 0.000000 0.447216 -0.894426
vn 0.000000 0.447216 -0.894426
vn 0.000000 0.447216 -0.894426
vn 0.000000 1.000000 0.000000
vn 0.000000 1.000000 0.000000
vn 0.000000 1.000000 0.000000
vn 0.000000 1.000000 0.000000
vn 0.000000 1.000000 0.000000
vn 0.000000 1.000000 0.000000
vn -0.000000 -1.000000 0.000000
vn -0.000000 -1.000000 0.000000
vn -0.000000 -1.000000 0.000000
vn -0.000000 -1.000000 0.000000
vn -0.000000 -1.000000 0.000000
vn -0.000000 -1.000000 0.000000
vn 0.000000 1.000000 0.000000
vn 0.000000 1.000000 0.000000
vn 0.000000 1.000000 0.000000
vn 0.000000 1.000000 0.000000
vn 0.000000 1.000000 0.000000
vn 0.000000 1.000000 0.000000
vn 0.000000 1.000000 0.000000
vn 0.000000 1.000000 0.000000
vn 0.000000 1.000000 0.000000
vn 0.000000 1.000000 0.000000
vn 0.000000 1.000000 0.000000
vn 0.000000 1.000000 0.000000
vn 0.000000 1.000000 0.000000
vn 0.000000 1.000000 0.000000
vn 0.000000 1.000000 0.000000
vn 0.000000 1.000000 0.000000
vn 0.000000 1.000000 0.000000
vn 0.000000 1.000000 0.000000
vn 0.000000 1.000000 0.000000
vn 0.000000 1.000000 0.000000
vn 0.000000 1.000000 0.000000
vn 0.000000 1.000000 0.000000
vn 0.000000 1.000000 0.000000
vn 0.000000 1.000000 0.000000
vn 0.000000 0.371391 -0.928477
vn 0.000000 0.371391 -0.928477
vn 0.000000 0.371391 -0.928477
vn 0.000000 0.371391 -0.928477
vn 0.000000 0.371391 -0.928477
vn 0.000000 0.371391 -0.928477
vn 0.928477 0.371391 0.000000
vn 0.928477 0.371391 0.000000
vn 0.928477 0.371391 0.000000
vn 0.928477 0.371391 0.000000
vn 0.928477 0.371391 0.000000
vn 0.928477 0.371391 0.000000
vn 0.000000 0.371391 0.928477
vn 0.000000 0.371391 0.928477
vn 0.000000 0.371391 0.928477
vn 0.000000 0.371391 0.928477
vn 0.000000 0.371391 0.928477
vn 0.000000 0.371391 0.928477
vn -0.928477 0.371391 0.000000
vn -0.928477 0.371391 0.000000
vn -0.928477 0.371391 0.000000
vn -0.928477 0.371391 0.000000
vn -0.928477 0.371391 0.000000
vn -0.928477 0.371391 0.000000
vn -0.000000 1.000000 0.000000
vn -0.000000 1.000000 0.000000
vn -0.000000 1.000000 0.000000
vn -0.000000 1.000000 0.000000
vn -0.000000 1.000000 0.000000
vn -0.000000 1.000000 0.000000
vn 0.000000 0.707107 -0.707107
vn 0.000000 0.707107 -0.707107
vn 0.000000 0.707107 -0.707107
vn 0.000000 0.707107 -0.707107
vn 0.000000 0.707107 -0.707107
vn 0.000000 0.707107 -0.707107
vn -0.707109 0.707104 0.000000
vn -0.707109 0.707104 0.000000
vn -0.707109 0.707104 0.000000
vn -0.707109 0.707104 0.000000
vn -0.707109 0.707104 0.000000
vn -0.707109 0.707104 0.000000
vn 0.000000 0.707107 0.707107
vn 0.000000 0.707107 0.707107
vn 0.000000 0.707107 0.707107
vn 0.000000 0.707107 0.707107
vn 0.000000 0.707107 0.707107
vn 0.000000 0.707107 0.707107
vn 0.707104 0.707110 -0.000000
vn 0.707104 0.707110 -0.000000
vn 0.707104 0.707110 -0.000000
vn 0.707104 0.707110 -0.000000
vn 0.707104 0.707110 -0.000000
vn 0.707104 0.707110 -0.000000
vn -0.000000 1.000000 -0.000000
vn -0.000000 1.000000 -0.000000
vn -0.000000 1.000000 -0.000000
vn -0.000000 1.000000 -0.000000
vn -0.000000 1.000000 -0.000000
vn -0.000000 1.000000 -0.000000
vn 0.000000 0.707107 0.707107
vn 0.000000 0.707107 0.707107
vn 0.000000 0.707107 0.707107
vn 0.000000 0.707107 0.707107
vn 0.000000 0.707107 0.707107
vn 0.000000 0.707107 0.707107
vn -0.707110 0.707104 -0.000000
vn -0.707110 0.707104 -0.000000
vn -0.707110 0.707104 -0.000000
vn -0.707110 0.707104 -0.000000
vn -0.707110 0.707104 -0.000000
vn -0.707110 0.707104 -0.000000
vn 0.000000 0.707107 -0.707107
vn 0.000000 0.707107 -0.707107
vn 0.000000 0.707107 -0.707107
vn 0.000000 0.707107 -0.707107
vn 0.000000 0.707107 -0.707107
vn 0.000000 0.707107 -0.707107
vn 0.707104 0.707110 0.000000
vn 0.707104 0.707110 0.000000
vn 0.707104 0.707110 0.000000
vn 0.707104 0.707110 0.000000
vn 0.707104 0.707110 0.000000
vn 0.707104 0.707110 0.000000
s off
g Platform6x6_ncl1_1
usemtl Platform6x6_ncl1_1SG3
f 6/32/1 1/7/2 2/31/3
f 1/7/4 6/32/5 5/1/6
f 10/37/7 13/40/8 9/36/9
f 14/33/10 9/36/11 13/40/12
f 17/46/13 15/43/14 16/45/15
f 15/43/16 17/46/17 18/41/18
f 11/47/19 12/51/20 10/37/21
f 13/40/22 10/37/23 12/51/24
f 9/14/25 4/4/26 10/6/27
f 4/4/28 9/14/29 3/3/30
f 11/117/31 10/6/32 4/4/33
f 11/117/34 4/4/35 1/15/36
f 1/7/37 5/1/38 12/51/39
f 1/7/40 12/51/41 11/47/42
f 12/16/43 7/10/44 13/11/45
f 7/10/46 12/16/47 5/8/48
f 14/18/49 7/10/50 8/17/51
f 14/18/52 13/11/53 7/10/54
f 8/93/55 3/94/56 9/36/57
f 8/93/58 9/36/59 14/33/60
f 16/19/61 2/2/62 19/5/63
f 2/2/64 16/19/65 15/20/66
f 19/95/67 20/96/68 17/46/69
f 19/95/70 17/46/71 16/45/72
f 17/22/73 6/12/74 18/21/75
f 6/12/76 17/22/77 20/9/78
f 15/43/79 6/32/80 2/31/81
f 6/32/82 15/43/83 18/41/84
usemtl Platform6x6_ncl1_1SG2
f 22/63/85 21/64/86 3/61/87
f 22/63/88 3/61/89 8/62/90
f 31/65/91 32/66/92 33/67/93
f 31/65/94 33/67/95 34/68/96
f 23/69/97 24/70/98 26/71/99
f 23/69/100 26/71/101 25/72/102
f 21/64/103 22/63/104 28/73/105
f 21/64/106 28/73/107 27/74/108
f 28/73/109 24/70/110 29/75/111
f 24/70/112 28/73/113 22/63/114
f 24/70/115 23/69/116 30/76/117
f 24/70/118 30/76/119 29/75/120
f 23/69/121 21/64/122 27/74/123
f 23/69/124 27/74/125 30/76/126
f 27/74/127 28/73/128 32/66/129
f 27/74/130 32/66/131 31/65/132
f 33/67/133 28/73/134 29/75/135
f 28/73/136 33/67/137 32/66/138
f 29/75/139 30/76/140 34/68/141
f 29/75/142 34/68/143 33/67/144
f 30/76/145 27/74/146 31/65/147
f 30/76/148 31/65/149 34/68/150
usemtl Platform6x6_ncl1_1SG3
f 36/100/151 35/97/152 38/98/153
f 36/100/154 38/98/155 37/99/156
f 40/104/157 39/101/158 42/102/159
f 40/104/160 42/102/161 41/103/162
f 44/108/163 43/105/164 46/106/165
f 44/108/166 46/106/167 45/107/168
f 41/103/169 42/102/170 48/109/171
f 41/103/172 48/109/173 47/110/174
f 40/120/175 50/122/176 49/112/177
f 50/122/178 40/120/179 41/121/180
f 47/123/181 50/122/182 41/121/183
f 50/122/184 47/123/185 36/124/186
f 36/100/187 48/109/188 35/97/189
f 48/109/190 36/100/191 47/110/192
f 48/35/193 51/44/194 35/13/195
f 51/44/196 48/35/197 42/38/198
f 52/49/199 51/44/200 39/48/201
f 39/48/202 51/44/203 42/38/204
f 39/101/205 40/104/206 52/111/207
f 49/113/208 52/111/209 40/104/210
f 44/116/211 45/118/212 37/52/213
f 53/119/214 37/52/215 45/118/216
f 46/106/217 53/114/218 45/107/219
f 54/115/220 53/114/221 46/106/222
f 46/39/223 38/50/224 54/34/225
f 38/50/226 46/39/227 43/42/228
f 43/105/229 44/108/230 38/98/231
f 37/99/232 38/98/233 44/108/234
usemtl Platform6x6_ncl1_1SG2
f 55/79/235 49/77/236 56/78/237
f 49/77/238 55/79/239 52/80/240
f 59/83/241 57/81/242 60/82/243
f 57/81/244 59/83/245 58/84/246
f 64/86/247 63/87/248 61/85/249
f 62/88/250 61/85/251 63/87/252
f 26/71/253 63/87/254 25/72/255
f 25/72/256 63/87/257 64/86/258
usemtl Platform6x6_ncl1_1SG3
f 53/114/259 54/115/260 20/96/261
f 53/114/262 20/96/263 19/95/264
usemtl Platform6x6_ncl1_1SG2
f 56/78/265 65/90/266 55/79/267
f 65/90/268 56/78/269 66/89/270
f 62/88/271 65/90/272 67/91/273
f 65/90/274 62/88/275 55/79/276
f 68/92/277 62/88/278 67/91/279
f 61/85/280 62/88/281 68/92/282
f 66/89/283 61/85/284 68/92/285
f 56/78/286 61/85/287 66/89/288
f 57/81/289 58/84/290 66/89/291
f 65/90/292 66/89/293 58/84/294
f 58/84/295 59/83/296 65/90/297
f 67/91/298 65/90/299 59/83/300
f 59/83/301 60/82/302 67/91/303
f 68/92/304 67/91/305 60/82/306
f 60/82/307 57/81/308 68/92/309
f 66/89/310 68/92/311 57/81/312
f 73/125/313 74/126/314 75/127/315
f 73/125/316 75/127/317 76/128/318
f 69/129/319 70/130/320 74/126/321
f 69/129/322 74/126/323 73/125/324
f 70/130/325 71/131/326 75/127/327
f 70/130/328 75/127/329 74/126/330
f 71/131/331 72/132/332 76/128/333
f 71/131/334 76/128/335 75/127/336
f 72/132/337 69/129/338 73/125/339
f 72/132/340 73/125/341 76/128/342
f 79/135/343 77/133/344 80/134/345
f 77/133/346 79/135/347 78/136/348
f 81/137/349 78/136/350 82/138/351
f 78/136/352 81/137/353 77/133/354
f 82/138/355 79/135/356 83/139/357
f 79/135/358 82/138/359 78/136/360
f 83/139/361 80/134/362 84/140/363
f 80/134/364 83/139/365 79/135/366
f 77/133/367 84/140/368 80/134/369
f 81/137/370 84/140/371 77/133/372
